<svg width="" height="" viewBox="0 0 24 24" fill="" xmlns="http://www.w3.org/2000/svg">
<path fill-rule="evenodd" clip-rule="evenodd" d="M4 3.36005V12.3526H5.3736V8.43151H9.24103V7.26793H5.3736V4.52803H9.64555V3.36005H4ZM11.2281 5.60818V12.3526H12.5572V5.60818H11.2281ZM11.3037 4.33922C11.4696 4.49143 11.6682 4.56754 11.8993 4.56754C12.1305 4.56754 12.3276 4.49143 12.4906 4.33922C12.6565 4.18407 12.7395 3.99966 12.7395 3.78597C12.7395 3.56935 12.6565 3.38493 12.4906 3.23272C12.3276 3.07757 12.1305 3 11.8993 3C11.6682 3 11.4696 3.07757 11.3037 3.23272C11.1407 3.38493 11.0592 3.56935 11.0592 3.78597C11.0592 3.99966 11.1407 4.18407 11.3037 4.33922ZM16.9014 8.23393L15.3945 5.60818H13.9364L16.0346 8.98037L13.9097 12.3526H15.3678L16.9014 9.8322L18.4395 12.3526H19.8931L17.746 8.98037L19.8753 5.60818H18.4217L16.9014 8.23393ZM5.66699 12.8714H4V21.8639H5.30692V15.3522H5.39138L8.07635 21.8507H9.16101L11.846 15.3566H11.9304V21.8639H13.2374V12.8714H11.5704L8.67203 19.8616H8.56534L5.66699 12.8714ZM16.3324 21.5741C16.8184 21.858 17.3978 22 18.0705 22C18.5684 22 19.0115 21.9254 19.3997 21.7761C19.7909 21.6238 20.1154 21.4116 20.3732 21.1394C20.634 20.8642 20.8148 20.5437 20.9155 20.1778L19.6575 19.9538C19.5775 20.1646 19.4619 20.3417 19.3108 20.4851C19.1596 20.6286 18.9803 20.7369 18.7729 20.8101C18.5654 20.8803 18.3358 20.9155 18.0839 20.9155C17.6956 20.9155 17.3563 20.8335 17.0659 20.6696C16.7755 20.5027 16.5488 20.2612 16.3858 19.9451C16.2368 19.6507 16.1571 19.298 16.1469 18.8869H21V18.4214C21 17.8096 20.917 17.2901 20.7511 16.8627C20.5851 16.4324 20.3584 16.0826 20.0709 15.8133C19.7835 15.5439 19.459 15.3464 19.0974 15.2205C18.7359 15.0946 18.3624 15.0317 17.9772 15.0317C17.343 15.0317 16.7888 15.1795 16.3146 15.4752C15.8434 15.7708 15.476 16.1821 15.2122 16.709C14.9514 17.2359 14.821 17.8448 14.821 18.5356C14.821 19.2352 14.9514 19.8455 15.2122 20.3666C15.476 20.8847 15.8494 21.2872 16.3324 21.5741ZM16.1491 17.9033C16.165 17.6134 16.238 17.3426 16.368 17.091C16.5191 16.8012 16.7325 16.567 17.0081 16.3885C17.2867 16.207 17.6127 16.1162 17.9861 16.1162C18.3298 16.1162 18.6292 16.1938 18.884 16.3489C19.1419 16.5041 19.3419 16.7163 19.4841 16.9856C19.6264 17.252 19.6975 17.5579 19.6975 17.9033H16.1491Z" fill=""/>
</svg>
